<?xml version="1.0" encoding="UTF-8"?>
<svg xmlns="http://www.w3.org/2000/svg" xmlns:xlink="http://www.w3.org/1999/xlink" width="500px" height="500px" viewBox="0 0 500 500" version="1.1">
<defs>
<clipPath id="clip1">
  <path d="M 83.355469 85 L 415.601562 85 L 415.601562 415 L 83.355469 415 Z M 83.355469 85 "/>
</clipPath>
</defs>
<g id="surface1">
<rect x="0" y="0" width="500" height="500" style="fill:rgb(100%,100%,100%);fill-opacity:1;stroke:none;"/>
<g clip-path="url(#clip1)" clip-rule="nonzero">
<path style=" stroke:none;fill-rule:nonzero;fill:rgb(7.45098%,7.45098%,7.45098%);fill-opacity:1;" d="M 172.136719 97.253906 C 172.136719 96.09375 172.71875 94.933594 173.878906 94.933594 C 175.035156 94.933594 176.195312 95.515625 176.195312 97.253906 C 176.777344 97.253906 177.9375 97.253906 178.515625 96.675781 C 180.832031 96.675781 183.152344 96.09375 184.890625 96.675781 C 186.628906 97.253906 187.789062 97.253906 189.527344 97.835938 C 191.269531 98.414062 192.429688 97.835938 193.585938 97.253906 C 195.90625 96.675781 197.644531 95.515625 199.960938 94.933594 C 201.121094 94.355469 201.703125 94.355469 202.863281 94.355469 C 204.019531 93.777344 205.179688 93.777344 206.917969 93.195312 C 209.816406 92.617188 212.714844 92.035156 215.035156 90.878906 C 217.355469 89.71875 219.671875 89.71875 221.992188 89.136719 C 223.148438 89.136719 223.730469 88.558594 224.890625 87.980469 C 225.46875 87.980469 225.46875 87.398438 226.046875 86.820312 C 227.207031 86.242188 227.789062 85.660156 228.945312 86.238281 C 229.527344 86.820312 230.6875 86.820312 231.265625 86.238281 L 231.847656 86.238281 C 235.324219 86.238281 238.800781 85.660156 242.859375 86.238281 C 243.4375 86.238281 244.019531 86.238281 244.019531 86.238281 C 245.757812 85.078125 248.074219 85.078125 250.394531 85.082031 C 250.976562 85.082031 252.132812 85.082031 252.714844 85.082031 L 253.292969 85.082031 C 255.613281 85.082031 257.929688 85.082031 259.671875 85.660156 C 261.410156 85.660156 262.570312 86.238281 264.308594 86.820312 C 266.046875 86.820312 267.207031 86.820312 268.945312 87.398438 C 270.105469 87.398438 271.265625 87.398438 272.421875 87.398438 C 273.003906 87.398438 273.582031 87.398438 273.582031 87.398438 C 275.902344 87.980469 278.21875 87.980469 280.539062 87.980469 C 282.277344 88.558594 284.015625 89.136719 286.335938 89.136719 C 286.914062 89.136719 287.496094 89.136719 288.074219 89.136719 C 288.652344 89.136719 289.234375 89.71875 289.8125 89.71875 L 290.394531 90.296875 C 292.710938 90.296875 294.449219 91.457031 296.769531 91.457031 C 297.347656 91.457031 298.507812 91.457031 299.089844 92.039062 C 300.828125 93.195312 303.144531 93.777344 305.464844 93.777344 C 306.625 93.777344 307.203125 94.355469 307.785156 94.933594 C 309.523438 95.515625 310.683594 96.09375 312.421875 96.675781 C 313.582031 97.253906 314.738281 96.675781 315.898438 97.253906 C 317.636719 97.832031 319.957031 98.414062 321.695312 100.152344 C 322.855469 101.3125 324.015625 101.3125 325.753906 102.472656 C 326.332031 102.472656 326.914062 103.050781 327.492188 103.628906 C 329.230469 104.789062 330.96875 105.949219 332.710938 106.527344 C 333.289062 106.527344 333.871094 107.109375 334.449219 107.109375 C 336.1875 108.269531 337.925781 110.007812 340.246094 111.167969 C 341.40625 111.746094 341.984375 112.328125 343.144531 112.90625 L 343.722656 112.90625 C 345.460938 114.644531 347.78125 115.804688 349.519531 117.542969 C 351.257812 119.28125 352.417969 120.441406 354.738281 121.601562 C 354.738281 121.601562 354.738281 121.601562 354.738281 122.179688 C 355.316406 123.339844 355.898438 123.917969 357.054688 124.5 C 358.214844 125.078125 358.796875 125.660156 359.375 126.238281 C 361.113281 127.398438 362.855469 128.554688 364.011719 129.714844 C 364.59375 130.296875 365.171875 130.875 366.332031 132.035156 C 366.910156 132.613281 367.492188 133.195312 368.070312 133.195312 C 370.386719 133.773438 371.546875 135.511719 373.289062 137.253906 C 374.445312 138.410156 376.1875 140.152344 377.34375 141.308594 C 377.925781 141.890625 378.503906 143.046875 379.085938 144.207031 C 380.242188 147.6875 381.984375 151.164062 383.722656 154.0625 C 383.722656 154.0625 383.722656 154.640625 384.300781 155.222656 L 384.300781 155.800781 C 385.460938 156.960938 386.039062 158.699219 387.199219 159.859375 C 387.78125 160.4375 387.78125 161.019531 388.359375 161.597656 C 389.519531 163.335938 390.097656 165.65625 391.257812 167.394531 C 392.996094 170.292969 394.15625 173.191406 395.316406 176.089844 L 395.316406 176.671875 C 395.894531 177.828125 396.476562 178.988281 397.054688 180.726562 C 397.054688 181.886719 398.214844 183.046875 398.792969 184.785156 C 399.371094 187.683594 401.113281 190.582031 401.691406 194.0625 C 401.691406 194.640625 402.269531 195.222656 402.273438 196.378906 C 402.851562 198.117188 403.429688 199.859375 404.011719 201.597656 C 404.011719 202.175781 404.589844 202.757812 405.167969 203.335938 C 406.328125 204.496094 406.328125 205.65625 406.328125 206.8125 C 405.75 209.132812 406.328125 211.453125 406.910156 213.769531 C 406.910156 214.347656 406.910156 214.929688 406.910156 216.089844 C 407.488281 218.40625 408.070312 221.304688 408.070312 223.625 C 408.070312 224.203125 408.070312 225.363281 408.070312 225.941406 C 408.070312 227.683594 408.648438 229.421875 409.808594 231.160156 C 409.808594 231.738281 410.386719 231.738281 410.386719 231.738281 C 410.964844 232.320312 411.546875 233.480469 412.125 234.058594 C 412.707031 234.636719 412.707031 234.636719 413.285156 235.21875 C 414.445312 236.378906 415.023438 237.535156 415.023438 239.277344 C 415.023438 239.855469 414.445312 241.015625 414.445312 241.59375 C 414.445312 242.171875 414.445312 243.332031 415.023438 243.914062 C 415.605469 244.492188 415.605469 245.074219 415.605469 245.652344 C 415.605469 246.230469 415.023438 246.8125 414.445312 246.8125 C 413.863281 248.550781 411.546875 249.128906 410.964844 250.867188 C 410.386719 253.1875 409.804688 255.507812 409.226562 257.824219 C 408.648438 259.566406 408.648438 260.722656 408.648438 262.464844 C 408.648438 264.203125 408.070312 265.363281 408.070312 267.101562 C 407.488281 269.417969 406.910156 271.738281 406.328125 274.058594 C 406.328125 275.214844 405.75 276.375 405.75 277.535156 C 406.328125 278.113281 406.910156 278.695312 407.488281 278.695312 C 408.648438 279.851562 409.808594 281.011719 410.964844 282.171875 C 411.546875 282.75 411.546875 283.332031 410.964844 283.332031 C 410.386719 283.910156 409.804688 283.910156 409.226562 283.910156 C 408.648438 283.332031 407.488281 282.75 406.910156 282.753906 C 406.328125 282.171875 405.167969 281.59375 404.011719 282.171875 C 404.011719 283.332031 403.429688 284.492188 403.429688 285.070312 C 402.851562 286.230469 402.269531 287.96875 402.273438 289.128906 C 401.691406 291.445312 400.53125 293.1875 399.953125 295.503906 C 398.792969 298.402344 397.636719 300.722656 396.476562 303.042969 C 395.894531 304.199219 395.316406 305.359375 394.734375 306.519531 C 394.734375 308.257812 392.996094 309.996094 392.417969 311.734375 C 391.257812 314.054688 390.097656 316.375 388.9375 319.269531 C 388.359375 320.429688 387.78125 321.589844 387.199219 322.171875 C 386.039062 325.070312 384.882812 327.386719 383.140625 329.707031 C 381.980469 331.445312 380.824219 332.605469 379.664062 333.183594 C 378.503906 334.34375 377.347656 335.503906 376.1875 336.664062 C 375.605469 337.242188 375.027344 337.820312 374.445312 338.402344 C 373.867188 338.980469 373.867188 338.980469 373.289062 339.558594 C 372.128906 341.300781 370.386719 342.460938 369.230469 344.199219 C 368.070312 345.359375 367.492188 346.515625 365.75 347.675781 C 364.59375 348.835938 363.433594 350.574219 361.695312 351.15625 C 361.113281 351.734375 360.535156 352.894531 359.953125 353.472656 C 359.375 354.050781 358.796875 355.210938 358.214844 355.792969 C 358.214844 356.953125 358.796875 358.109375 358.796875 358.691406 C 358.796875 360.429688 357.054688 361.007812 355.898438 359.847656 C 354.160156 358.6875 354.160156 358.6875 352.417969 359.847656 C 350.679688 361.007812 348.941406 362.746094 346.621094 363.328125 C 346.042969 363.328125 346.042969 363.90625 345.460938 363.90625 C 344.304688 364.488281 343.722656 365.648438 342.5625 366.226562 C 341.402344 367.386719 339.664062 367.964844 338.507812 369.125 C 337.925781 369.703125 337.347656 369.703125 336.765625 370.285156 C 335.027344 371.445312 333.289062 372.023438 331.550781 373.761719 C 330.972656 374.339844 330.390625 374.339844 329.8125 374.921875 C 329.8125 375.5 329.8125 375.5 329.8125 376.082031 C 329.8125 377.238281 328.652344 378.398438 326.914062 377.820312 C 325.175781 377.238281 324.015625 377.820312 322.277344 377.820312 C 320.535156 378.398438 318.796875 379.558594 317.058594 380.136719 C 316.480469 380.136719 315.898438 380.71875 315.320312 381.296875 C 313.582031 382.457031 311.839844 383.035156 310.101562 383.617188 C 308.941406 383.617188 307.785156 384.777344 306.625 384.777344 C 306.042969 384.777344 305.464844 385.355469 304.886719 385.355469 L 304.304688 385.355469 C 301.988281 387.09375 299.667969 388.253906 297.347656 389.992188 C 296.769531 389.992188 296.769531 390.574219 296.191406 391.152344 C 295.609375 392.3125 295.03125 392.890625 293.871094 392.890625 C 290.972656 392.890625 289.8125 395.210938 290.394531 397.527344 C 290.394531 398.109375 290.972656 398.6875 290.972656 399.269531 C 291.550781 400.429688 290.972656 401.585938 290.394531 402.164062 C 289.8125 402.746094 288.074219 402.746094 287.496094 401.585938 C 286.335938 400.425781 285.757812 399.269531 285.175781 397.527344 C 284.597656 396.371094 283.4375 395.210938 282.277344 394.628906 C 281.117188 394.050781 279.960938 394.050781 278.800781 394.628906 C 278.21875 394.628906 278.21875 395.210938 277.640625 395.210938 C 276.480469 396.371094 274.742188 396.949219 273.003906 396.371094 C 272.421875 396.371094 271.265625 396.371094 271.265625 396.949219 C 270.683594 397.527344 270.683594 398.6875 271.265625 399.269531 C 272.421875 400.429688 271.84375 401.585938 271.84375 403.324219 C 271.84375 405.644531 270.105469 406.804688 267.785156 405.644531 C 267.207031 405.066406 266.625 405.066406 266.046875 404.484375 C 265.46875 404.484375 265.46875 403.90625 265.46875 403.324219 C 264.886719 402.746094 264.886719 401.585938 264.308594 400.425781 C 263.148438 401.007812 261.988281 401.007812 260.828125 401.585938 C 260.25 401.585938 259.667969 402.164062 259.089844 402.164062 C 257.351562 402.164062 256.773438 402.164062 256.191406 400.425781 C 255.613281 398.6875 254.453125 398.6875 253.292969 398.109375 C 250.976562 397.527344 248.074219 397.527344 245.757812 396.371094 L 245.179688 396.371094 C 242.859375 394.628906 240.539062 394.628906 237.640625 394.628906 C 235.902344 394.628906 234.164062 395.210938 232.425781 395.210938 C 230.6875 395.210938 229.527344 395.789062 228.367188 396.949219 C 227.789062 397.527344 227.207031 398.109375 226.628906 398.109375 C 226.050781 397.527344 226.050781 396.949219 225.46875 396.371094 L 225.46875 395.789062 C 225.46875 395.210938 224.890625 394.628906 224.308594 395.210938 C 223.148438 395.789062 221.992188 394.628906 220.832031 394.050781 C 220.253906 393.472656 219.09375 392.3125 219.09375 391.152344 C 218.511719 390.574219 217.933594 389.992188 217.355469 389.992188 C 216.195312 389.992188 214.453125 389.414062 213.296875 389.414062 C 212.714844 389.414062 212.136719 389.414062 212.136719 388.832031 C 211.558594 388.253906 210.976562 388.253906 209.816406 388.253906 C 209.238281 388.253906 209.238281 387.675781 208.65625 387.671875 C 209.816406 388.832031 210.398438 389.992188 210.976562 391.152344 C 210.976562 391.730469 211.554688 391.730469 211.558594 392.3125 C 212.136719 393.472656 211.558594 394.050781 209.816406 394.050781 C 208.65625 394.050781 208.65625 394.050781 208.078125 394.628906 C 208.078125 395.789062 208.078125 396.371094 208.078125 397.527344 C 208.078125 398.109375 208.078125 398.6875 206.917969 399.269531 C 206.917969 399.269531 206.339844 399.269531 206.339844 399.847656 C 205.761719 400.425781 205.761719 401.007812 206.339844 401.585938 C 208.078125 402.746094 209.238281 403.324219 210.976562 403.90625 C 212.714844 403.90625 212.714844 405.066406 213.296875 406.222656 C 213.875 407.382812 213.296875 407.960938 212.714844 409.121094 C 211.554688 410.28125 210.398438 411.441406 209.238281 412.601562 C 207.5 413.179688 206.339844 414.917969 204.601562 414.917969 C 203.441406 414.917969 202.28125 414.339844 201.703125 413.179688 C 201.121094 410.28125 201.121094 407.960938 202.28125 405.066406 C 202.28125 404.484375 202.863281 403.90625 202.28125 403.324219 C 197.066406 403.324219 197.066406 402.164062 197.066406 401.585938 C 197.066406 400.425781 197.644531 399.847656 197.644531 398.6875 C 198.222656 397.527344 197.644531 396.949219 195.90625 396.371094 C 195.324219 396.371094 194.746094 396.371094 194.164062 396.371094 C 193.585938 396.371094 193.585938 395.789062 192.425781 395.789062 C 193.585938 395.210938 194.164062 395.210938 195.324219 394.628906 C 194.746094 392.3125 194.164062 390.574219 192.425781 389.414062 C 191.847656 388.832031 191.265625 388.253906 191.269531 387.09375 C 191.269531 385.355469 190.109375 384.195312 189.527344 383.035156 C 188.371094 381.296875 186.050781 380.71875 184.3125 380.71875 C 182.574219 380.140625 181.414062 380.140625 179.671875 379.558594 C 177.933594 378.980469 176.195312 377.238281 174.457031 376.660156 C 173.878906 376.082031 173.296875 375.5 172.136719 374.921875 C 169.820312 373.761719 168.082031 372.023438 166.339844 370.285156 C 165.179688 369.703125 164.601562 368.542969 163.445312 367.964844 C 162.285156 366.804688 161.703125 365.648438 160.542969 365.066406 C 159.386719 363.90625 158.226562 362.746094 156.488281 361.589844 C 154.746094 360.429688 153.589844 358.6875 151.847656 356.953125 C 150.6875 355.210938 148.949219 354.050781 147.210938 352.894531 C 146.632812 352.894531 146.050781 352.894531 145.472656 352.894531 C 144.894531 352.894531 144.3125 353.472656 143.734375 353.472656 C 141.996094 354.050781 140.835938 355.210938 139.097656 355.792969 C 139.675781 355.210938 139.675781 355.210938 139.097656 354.050781 C 138.515625 353.472656 137.9375 352.894531 137.359375 352.894531 C 136.199219 352.894531 135.039062 352.894531 133.878906 352.894531 C 131.5625 352.894531 129.242188 353.472656 126.921875 353.472656 C 125.183594 353.472656 122.867188 354.050781 121.125 354.632812 C 121.707031 355.792969 121.707031 356.371094 122.285156 357.53125 C 121.125 358.109375 119.964844 358.109375 118.808594 358.109375 C 118.226562 358.109375 117.066406 358.6875 116.488281 359.269531 C 115.910156 359.269531 115.910156 359.847656 115.328125 359.269531 C 114.171875 358.691406 113.011719 359.269531 111.851562 359.847656 L 111.269531 359.847656 C 111.269531 359.847656 111.269531 359.269531 111.851562 359.269531 C 112.429688 358.691406 113.011719 358.109375 113.589844 357.53125 C 114.171875 356.953125 114.75 356.953125 115.910156 356.371094 C 115.328125 355.792969 115.328125 355.210938 115.328125 355.210938 C 114.75 354.632812 114.171875 354.632812 113.589844 355.210938 C 113.011719 355.792969 112.429688 356.371094 111.851562 356.953125 C 111.273438 357.53125 110.691406 357.53125 110.113281 356.953125 C 109.53125 356.371094 109.53125 355.792969 110.113281 355.210938 C 110.113281 354.632812 110.691406 354.050781 111.269531 353.472656 C 111.851562 352.894531 111.851562 352.3125 112.429688 351.734375 C 111.269531 350.574219 110.691406 349.414062 109.53125 348.835938 C 107.792969 347.675781 106.054688 345.9375 104.894531 344.199219 C 103.734375 341.878906 101.996094 340.140625 99.679688 338.980469 C 99.097656 338.402344 98.519531 337.820312 97.9375 337.242188 C 97.359375 336.664062 97.359375 336.664062 96.78125 336.082031 C 95.039062 336.660156 93.882812 337.820312 92.140625 338.402344 C 91.5625 338.402344 91.5625 338.980469 90.980469 339.558594 C 90.402344 340.71875 89.242188 340.71875 88.085938 340.71875 C 87.503906 340.71875 86.925781 340.140625 87.503906 339.558594 C 88.085938 338.402344 88.664062 337.242188 90.402344 337.820312 C 90.402344 337.820312 90.980469 337.820312 90.980469 337.242188 C 92.140625 336.082031 93.300781 334.34375 95.039062 333.183594 C 94.460938 331.445312 93.300781 330.285156 92.722656 329.125 C 92.140625 328.546875 92.140625 327.96875 92.140625 326.808594 C 92.140625 326.226562 92.140625 326.226562 91.5625 325.648438 C 91.5625 325.648438 90.984375 325.648438 90.402344 326.226562 C 89.824219 326.808594 88.664062 327.386719 87.503906 326.226562 C 87.503906 325.648438 87.503906 325.066406 88.085938 324.488281 L 88.664062 323.910156 C 90.402344 323.328125 90.402344 321.589844 90.402344 319.851562 L 90.402344 319.269531 C 89.824219 318.113281 89.824219 317.53125 90.980469 316.375 C 92.722656 315.214844 94.460938 312.894531 95.039062 311.15625 C 95.621094 309.996094 96.78125 309.417969 97.9375 308.257812 C 99.097656 307.097656 100.257812 305.9375 100.835938 304.199219 L 101.417969 304.199219 C 103.734375 304.777344 104.316406 303.039062 105.472656 301.300781 C 105.472656 300.722656 105.472656 300.140625 106.054688 300.140625 C 107.214844 298.984375 107.214844 297.824219 106.632812 296.085938 C 106.632812 295.503906 106.054688 294.34375 106.054688 293.765625 C 106.054688 293.1875 106.054688 293.1875 105.472656 292.605469 C 103.734375 291.445312 103.734375 290.289062 105.472656 289.128906 C 106.632812 288.550781 106.632812 287.390625 107.214844 286.808594 C 107.792969 285.648438 107.792969 284.492188 107.792969 282.753906 C 107.214844 281.011719 107.214844 278.695312 106.632812 276.957031 C 106.054688 274.636719 105.472656 271.738281 104.894531 269.417969 C 104.894531 268.839844 104.894531 268.839844 104.894531 268.261719 C 104.894531 266.519531 104.894531 265.359375 104.316406 263.621094 C 103.738281 263.042969 103.738281 261.882812 103.734375 261.304688 C 103.15625 259.566406 102.574219 258.40625 100.835938 257.824219 C 99.097656 256.664062 96.78125 256.085938 95.039062 254.925781 C 94.460938 254.347656 93.882812 254.925781 93.300781 255.507812 C 92.722656 256.667969 91.5625 257.824219 90.980469 258.984375 C 90.402344 259.566406 89.824219 260.722656 89.242188 261.882812 C 88.082031 263.042969 85.765625 264.203125 84.027344 262.464844 C 83.449219 261.304688 82.867188 260.722656 84.027344 259.566406 C 85.1875 257.824219 86.34375 256.085938 88.085938 254.925781 C 88.664062 254.347656 89.246094 253.1875 89.824219 252.609375 C 90.402344 251.449219 90.402344 250.289062 90.402344 249.128906 C 89.824219 246.8125 89.242188 244.492188 89.242188 241.59375 C 89.242188 238.695312 89.242188 236.375 89.824219 233.480469 C 90.402344 232.320312 90.402344 230.582031 90.980469 229.421875 C 90.980469 228.84375 91.5625 227.683594 92.140625 227.101562 C 93.300781 225.941406 94.460938 224.785156 95.039062 223.042969 C 95.621094 221.304688 96.78125 219.566406 96.78125 217.828125 C 96.78125 217.25 97.359375 216.667969 97.359375 216.089844 C 97.359375 215.507812 97.9375 214.351562 97.9375 213.769531 C 97.359375 212.03125 97.9375 210.871094 98.519531 209.710938 C 99.097656 208.550781 99.679688 206.8125 100.257812 205.65625 C 101.417969 203.335938 101.417969 200.4375 103.734375 198.117188 C 104.316406 196.957031 104.894531 195.800781 105.472656 194.640625 C 106.054688 192.320312 107.214844 190.582031 108.375 188.84375 C 108.953125 188.265625 108.953125 188.265625 108.953125 187.683594 C 109.53125 185.945312 110.691406 184.207031 111.851562 182.464844 C 113.011719 180.726562 113.011719 178.988281 113.589844 177.25 C 113.589844 176.671875 113.589844 176.089844 114.171875 175.511719 C 115.910156 173.773438 115.328125 171.453125 114.75 169.132812 C 113.589844 166.234375 113.011719 163.335938 113.589844 160.441406 C 113.589844 159.859375 113.589844 159.28125 114.171875 159.28125 C 114.75 158.121094 114.75 157.539062 115.328125 156.382812 L 115.328125 155.800781 C 116.488281 154.640625 117.648438 152.902344 119.386719 152.324219 C 121.707031 151.164062 124.027344 150.585938 126.921875 150.003906 C 129.242188 150.003906 131.5625 148.84375 133.300781 146.527344 C 133.300781 145.949219 133.878906 145.949219 134.457031 145.367188 L 135.039062 144.789062 C 135.617188 143.628906 136.199219 143.046875 136.777344 142.46875 C 137.9375 141.308594 139.097656 139.570312 140.253906 138.410156 C 141.414062 137.253906 142.574219 135.511719 144.3125 133.773438 L 144.894531 133.195312 C 146.054688 132.035156 147.210938 130.875 148.371094 130.296875 C 149.53125 129.136719 150.6875 127.976562 151.847656 126.816406 C 153.007812 125.65625 153.589844 124.5 154.746094 123.339844 C 155.90625 122.761719 157.066406 121.601562 158.226562 120.441406 C 159.386719 119.28125 160.542969 118.121094 161.125 117.542969 C 162.285156 116.382812 164.023438 115.222656 165.183594 114.644531 C 166.34375 114.066406 167.5 113.484375 168.082031 111.746094 C 168.660156 110.007812 169.238281 108.847656 169.820312 107.109375 C 169.820312 105.949219 170.398438 104.789062 170.980469 103.628906 C 171.558594 103.628906 172.140625 103.628906 173.296875 103.050781 C 172.71875 102.472656 172.136719 102.472656 172.136719 101.890625 C 172.136719 101.3125 172.71875 100.730469 172.71875 100.730469 C 172.71875 100.152344 173.296875 99.570312 173.296875 98.992188 C 173.296875 98.992188 173.878906 98.992188 173.878906 98.414062 C 173.878906 98.414062 174.457031 98.414062 174.457031 97.835938 C 173.296875 98.414062 172.71875 97.835938 172.136719 97.253906 C 172.71875 97.832031 173.296875 97.832031 174.457031 98.414062 C 174.457031 98.414062 175.035156 98.414062 175.035156 97.835938 C 175.035156 97.253906 175.035156 96.675781 175.035156 96.675781 C 175.035156 96.675781 174.457031 96.675781 173.878906 96.675781 C 173.296875 96.675781 172.71875 97.253906 172.136719 97.253906 Z M 272.421875 369.703125 C 272.421875 369.125 271.84375 369.125 271.84375 368.542969 C 271.265625 367.386719 271.84375 366.804688 272.421875 366.226562 C 273.003906 365.648438 273.582031 365.648438 274.742188 365.648438 C 275.902344 366.226562 276.480469 366.804688 276.480469 367.964844 C 276.480469 368.542969 276.480469 369.703125 276.480469 370.285156 C 277.058594 372.601562 277.058594 372.601562 279.378906 372.601562 C 280.539062 372.601562 281.699219 372.601562 282.855469 372.601562 C 285.175781 372.023438 287.496094 370.863281 289.8125 370.285156 C 292.132812 369.703125 294.453125 369.125 296.769531 368.542969 C 297.347656 368.542969 297.929688 368.542969 299.089844 368.542969 C 301.40625 369.125 303.144531 368.542969 304.886719 367.386719 C 305.464844 366.804688 306.625 366.804688 307.203125 366.226562 C 308.363281 365.648438 309.523438 365.648438 310.683594 365.066406 C 313.582031 363.328125 316.476562 362.167969 318.796875 360.429688 C 320.535156 359.269531 322.277344 358.109375 324.015625 356.953125 C 325.753906 355.792969 327.492188 354.632812 329.230469 353.472656 C 330.390625 352.894531 332.128906 351.734375 333.289062 350.574219 C 335.609375 348.835938 337.347656 347.097656 339.667969 345.9375 C 340.824219 345.359375 341.40625 344.777344 341.984375 344.199219 C 343.144531 343.617188 343.722656 342.460938 344.882812 341.878906 C 345.460938 341.300781 346.042969 340.71875 347.203125 340.140625 C 347.78125 339.5625 347.78125 339.5625 347.78125 338.980469 C 349.519531 337.820312 351.257812 335.503906 352.417969 333.761719 C 353.578125 332.605469 354.738281 331.445312 355.898438 329.707031 C 357.636719 327.96875 358.796875 325.648438 360.535156 323.328125 C 361.695312 322.171875 362.851562 320.429688 363.433594 319.269531 C 364.59375 316.953125 365.75 314.632812 367.492188 312.894531 L 367.492188 312.316406 C 368.652344 309.996094 369.808594 307.679688 370.96875 305.359375 C 372.707031 302.460938 373.867188 298.984375 375.605469 296.085938 C 376.183594 294.925781 376.765625 293.765625 376.765625 292.605469 C 377.925781 290.289062 378.503906 287.96875 379.085938 285.648438 C 379.085938 285.070312 379.085938 285.070312 379.664062 284.492188 C 381.402344 281.011719 382.5625 277.535156 383.140625 273.476562 C 383.722656 271.160156 384.300781 268.839844 384.878906 266.519531 C 386.039062 263.042969 386.039062 260.144531 386.621094 256.667969 C 387.199219 254.347656 387.199219 251.449219 387.199219 249.132812 C 387.78125 245.652344 387.78125 241.59375 387.199219 238.117188 C 387.199219 235.21875 386.621094 231.742188 386.621094 228.84375 C 386.621094 225.941406 386.039062 223.625 385.460938 220.726562 C 384.882812 217.828125 384.300781 215.507812 383.722656 212.609375 C 382.5625 210.292969 381.984375 207.972656 381.402344 205.074219 C 380.824219 202.757812 379.664062 201.015625 379.664062 198.699219 C 379.664062 196.957031 379.085938 195.21875 377.34375 194.640625 C 375.605469 194.0625 374.445312 193.480469 372.707031 192.320312 C 369.230469 190.003906 367.492188 187.105469 368.070312 183.625 C 368.070312 181.886719 368.648438 179.570312 369.230469 177.828125 C 369.808594 176.089844 370.390625 174.351562 369.230469 173.191406 C 368.652344 171.453125 367.492188 170.292969 366.910156 169.132812 C 365.75 167.394531 365.171875 166.234375 364.011719 165.078125 C 362.851562 162.757812 361.695312 160.4375 359.953125 158.699219 C 357.636719 155.800781 355.898438 152.902344 353 150.585938 L 352.417969 150.003906 C 350.679688 147.6875 348.941406 145.367188 346.621094 143.628906 C 345.460938 142.46875 344.304688 141.308594 343.144531 140.730469 C 342.566406 140.152344 341.984375 139.570312 340.824219 138.992188 C 339.085938 137.832031 337.347656 137.253906 336.1875 136.09375 C 334.449219 134.351562 332.128906 133.195312 330.390625 132.035156 C 330.390625 132.035156 329.8125 132.035156 329.8125 131.457031 C 327.492188 130.296875 325.753906 129.714844 323.433594 128.554688 C 321.117188 127.398438 318.796875 126.816406 316.476562 126.816406 C 315.898438 126.816406 315.898438 126.816406 315.320312 126.816406 C 314.742188 126.238281 313.582031 126.238281 313 126.238281 C 312.421875 126.238281 312.421875 126.238281 311.839844 126.238281 C 310.683594 125.660156 308.941406 126.238281 307.785156 126.238281 C 305.464844 126.816406 303.144531 126.816406 300.828125 125.660156 C 297.929688 124.5 295.609375 123.339844 293.292969 122.179688 C 291.550781 121.019531 290.394531 119.863281 288.652344 118.703125 C 285.175781 115.804688 281.699219 112.328125 277.640625 109.425781 C 278.21875 106.527344 277.058594 105.949219 274.742188 105.949219 C 273.582031 105.949219 272.421875 106.527344 271.265625 107.109375 C 270.683594 107.6875 270.683594 107.6875 270.105469 108.269531 C 268.363281 109.425781 267.207031 111.167969 265.46875 112.328125 C 262.566406 114.066406 261.410156 113.484375 259.089844 112.328125 C 258.511719 111.746094 257.929688 111.167969 257.351562 110.585938 C 256.191406 109.425781 255.03125 107.6875 254.453125 106.527344 C 253.292969 104.210938 250.976562 104.210938 248.65625 104.210938 C 247.496094 104.210938 245.757812 104.789062 244.597656 104.789062 C 242.28125 104.789062 239.960938 105.949219 238.800781 107.6875 C 237.640625 109.425781 236.484375 111.167969 234.742188 112.90625 C 234.164062 113.484375 233.003906 114.066406 232.425781 115.222656 C 231.265625 116.382812 230.105469 116.382812 228.945312 115.222656 C 228.367188 114.644531 227.789062 114.644531 227.207031 114.0625 C 226.628906 114.644531 226.046875 115.222656 226.046875 115.804688 C 225.46875 116.964844 224.886719 118.121094 224.308594 119.863281 C 223.730469 121.601562 222.570312 123.339844 221.410156 124.5 C 220.832031 125.078125 220.832031 125.078125 220.25 125.660156 C 219.671875 126.820312 217.933594 127.398438 216.773438 127.398438 C 215.613281 128.558594 214.453125 130.296875 213.875 131.457031 C 213.296875 132.613281 212.714844 133.773438 212.136719 135.511719 C 211.558594 136.09375 211.558594 137.253906 210.976562 137.832031 C 210.398438 138.992188 210.398438 139.570312 210.398438 140.730469 C 210.976562 142.46875 209.816406 143.046875 208.078125 143.628906 C 206.917969 143.628906 206.917969 143.628906 206.339844 144.789062 C 206.339844 146.527344 206.917969 147.6875 207.5 149.425781 C 208.078125 150.003906 208.65625 151.164062 208.65625 151.746094 C 208.65625 152.902344 209.238281 153.484375 210.398438 154.0625 C 210.976562 154.640625 211.558594 155.222656 212.136719 155.222656 C 212.714844 155.222656 212.714844 155.800781 213.296875 155.800781 C 213.875 156.382812 214.457031 155.800781 214.453125 155.222656 C 215.035156 153.484375 215.613281 151.746094 215.613281 150.003906 C 216.195312 147.6875 216.195312 145.949219 216.773438 143.628906 C 217.351562 142.46875 217.933594 141.890625 218.511719 141.308594 C 218.511719 141.308594 219.089844 141.308594 219.671875 141.308594 L 219.671875 141.890625 C 219.09375 144.789062 217.933594 148.265625 217.355469 151.164062 C 216.773438 152.324219 216.773438 153.484375 216.195312 154.640625 C 216.195312 155.222656 215.613281 155.800781 215.035156 155.800781 C 213.875 156.382812 212.714844 156.960938 211.558594 156.960938 C 210.976562 156.960938 210.398438 156.960938 209.816406 156.960938 C 208.65625 156.382812 207.5 155.222656 206.339844 154.640625 C 205.761719 154.0625 205.179688 153.480469 204.601562 152.902344 C 204.019531 151.746094 203.441406 150.585938 202.863281 149.425781 C 202.28125 148.265625 201.703125 147.6875 200.542969 147.105469 C 199.964844 146.527344 199.382812 146.527344 198.804688 145.949219 C 197.644531 144.789062 196.484375 144.207031 194.746094 144.207031 C 194.167969 144.207031 193.007812 144.207031 192.425781 144.207031 C 191.847656 144.207031 190.6875 144.789062 190.109375 145.367188 C 188.949219 145.945312 188.371094 145.945312 187.210938 145.367188 C 184.3125 144.207031 181.414062 144.789062 178.515625 145.949219 C 177.355469 146.527344 176.195312 147.105469 175.035156 147.105469 C 172.136719 147.105469 169.820312 147.105469 166.921875 147.105469 C 164.023438 147.105469 161.703125 146.527344 158.804688 145.949219 C 157.644531 145.949219 156.488281 145.949219 155.328125 145.949219 C 153.007812 146.527344 152.429688 148.265625 153.007812 150.585938 C 153.589844 152.902344 154.167969 155.800781 154.167969 158.121094 C 154.167969 159.859375 154.167969 161.597656 154.167969 163.335938 C 154.167969 164.496094 154.167969 165.078125 154.167969 166.238281 C 154.167969 167.976562 153.589844 169.714844 153.589844 171.453125 C 153.007812 174.933594 151.269531 177.828125 148.953125 180.148438 C 147.210938 181.886719 144.894531 183.625 142.574219 184.207031 C 141.414062 184.785156 140.253906 185.367188 138.515625 185.945312 C 135.617188 187.105469 133.300781 189.421875 131.558594 192.320312 C 130.980469 193.480469 130.398438 194.640625 129.820312 195.800781 C 128.664062 197.539062 128.082031 198.699219 126.921875 200.4375 C 126.34375 201.597656 125.183594 202.753906 124.605469 203.914062 C 124.027344 205.074219 122.867188 205.65625 122.867188 206.8125 C 121.707031 209.132812 121.125 211.453125 119.964844 213.769531 C 119.386719 214.929688 119.386719 216.667969 118.808594 217.828125 C 117.648438 220.148438 117.648438 222.464844 117.648438 225.363281 C 117.648438 225.941406 117.648438 226.523438 117.648438 227.683594 C 117.648438 230.582031 117.070312 234.058594 117.070312 236.957031 C 117.070312 239.855469 117.070312 242.753906 117.648438 245.652344 C 117.648438 246.8125 117.648438 248.550781 117.648438 249.710938 C 117.648438 252.027344 118.226562 254.925781 118.226562 257.246094 C 118.226562 259.566406 118.226562 262.464844 119.386719 264.78125 L 119.386719 265.359375 C 119.964844 267.679688 119.964844 270 120.546875 272.316406 C 120.546875 272.898438 120.546875 273.476562 121.125 274.058594 C 122.285156 277.535156 122.867188 280.433594 124.023438 283.910156 C 124.605469 286.230469 125.761719 288.550781 126.34375 290.867188 C 126.921875 293.1875 129.242188 295.503906 129.820312 298.402344 C 131.558594 301.882812 133.300781 305.359375 135.617188 308.835938 C 136.199219 309.996094 137.359375 311.15625 137.9375 312.316406 C 139.097656 314.054688 139.675781 315.792969 140.835938 316.953125 C 141.414062 318.113281 142.574219 319.269531 143.15625 319.851562 C 143.734375 321.011719 144.3125 322.171875 145.472656 323.328125 C 146.632812 324.488281 147.792969 326.230469 148.953125 327.386719 C 150.691406 330.285156 153.007812 332.605469 155.328125 334.34375 C 156.488281 335.503906 157.644531 336.082031 158.804688 337.242188 C 159.386719 337.820312 159.964844 337.820312 159.964844 338.402344 C 160.542969 338.980469 161.125 339.5625 162.285156 340.140625 C 166.921875 342.460938 170.398438 345.9375 174.457031 349.414062 C 176.195312 351.15625 177.9375 352.894531 180.253906 354.050781 C 182.574219 355.792969 184.3125 357.53125 187.210938 358.109375 C 187.210938 358.109375 187.789062 358.109375 187.789062 358.691406 C 188.949219 359.851562 190.6875 360.429688 191.847656 361.007812 C 194.164062 362.167969 197.066406 363.328125 199.382812 364.488281 C 199.960938 365.066406 201.121094 365.066406 201.703125 365.648438 C 203.441406 366.226562 205.179688 366.804688 206.917969 367.386719 C 208.65625 367.964844 209.816406 368.542969 211.558594 368.542969 L 212.136719 368.542969 C 213.296875 369.125 213.875 369.125 215.035156 368.542969 C 215.613281 368.542969 216.195312 368.542969 216.195312 369.125 C 216.195312 369.703125 216.773438 369.703125 217.355469 369.703125 C 217.933594 369.703125 218.511719 369.703125 219.671875 369.703125 C 220.25 369.125 220.25 368.542969 220.832031 367.386719 C 221.410156 367.964844 221.992188 367.964844 221.992188 367.964844 C 222.570312 369.125 223.730469 369.125 224.890625 369.125 L 225.46875 369.125 C 226.628906 369.125 227.207031 369.125 227.789062 368.542969 C 227.789062 367.964844 228.945312 367.964844 229.527344 367.964844 C 231.265625 368.542969 233.003906 368.542969 234.742188 369.125 C 235.902344 369.703125 237.640625 369.703125 238.222656 368.542969 C 238.800781 367.964844 239.382812 367.386719 240.539062 367.964844 C 241.699219 368.542969 242.28125 368.542969 243.4375 367.964844 C 244.019531 367.964844 244.597656 367.964844 244.597656 367.964844 C 246.339844 368.542969 247.496094 368.542969 249.234375 369.125 C 251.554688 369.703125 251.554688 369.703125 253.292969 367.964844 C 253.871094 367.386719 255.03125 367.386719 255.613281 367.964844 C 256.191406 369.125 256.191406 369.703125 256.191406 370.863281 C 256.773438 370.863281 256.773438 370.863281 257.351562 370.285156 C 257.351562 369.125 257.929688 369.125 259.089844 368.542969 C 259.667969 369.125 259.667969 369.125 260.25 369.125 C 261.410156 370.285156 261.988281 370.285156 262.566406 368.542969 C 262.566406 367.964844 262.566406 367.386719 263.148438 367.386719 C 263.726562 367.386719 264.308594 367.964844 264.308594 367.964844 C 264.886719 369.125 266.046875 369.703125 266.625 370.863281 C 267.785156 372.023438 269.523438 372.023438 270.105469 370.863281 C 270.683594 370.285156 271.265625 370.285156 271.84375 370.285156 C 271.84375 369.703125 271.84375 369.125 271.84375 368.542969 C 273.582031 369.703125 273.003906 369.703125 272.421875 369.703125 Z M 176.195312 98.992188 C 177.9375 99.570312 179.09375 99.570312 179.671875 98.414062 C 178.515625 98.992188 177.355469 97.835938 176.195312 98.992188 Z M 176.195312 98.992188 "/>
</g>
<path style=" stroke:none;fill-rule:nonzero;fill:rgb(7.45098%,7.45098%,7.45098%);fill-opacity:1;" d="M 162.3125 284.441406 L 160.746094 284.441406 C 158.335938 284.441406 157.128906 283.886719 157.128906 282.777344 C 157.128906 282.582031 157.148438 282.386719 157.1875 282.191406 C 157.210938 281.996094 157.257812 281.765625 157.324219 281.503906 L 175.230469 217.417969 C 175.621094 216.179688 176.925781 215.558594 179.140625 215.558594 L 182.273438 215.558594 C 184.492188 215.558594 185.796875 216.179688 186.1875 217.417969 L 203.992188 281.503906 C 204.058594 281.765625 204.125 281.996094 204.191406 282.191406 C 204.253906 282.386719 204.289062 282.582031 204.289062 282.777344 C 204.289062 283.886719 203.082031 284.441406 200.667969 284.441406 L 199.003906 284.441406 C 198.089844 284.441406 197.308594 284.324219 196.65625 284.089844 C 196.003906 283.867188 195.613281 283.460938 195.480469 282.875 L 191.175781 266.632812 L 170.238281 266.632812 L 165.835938 282.875 C 165.707031 283.460938 165.3125 283.867188 164.660156 284.089844 C 164.007812 284.324219 163.226562 284.441406 162.3125 284.441406 Z M 179.339844 232.585938 L 172.097656 259.394531 L 189.21875 259.394531 L 182.078125 232.585938 C 181.816406 231.671875 181.609375 230.671875 181.453125 229.589844 C 181.28125 228.519531 181.132812 227.527344 181 226.617188 L 180.511719 226.617188 C 180.316406 227.527344 180.140625 228.519531 179.984375 229.589844 C 179.8125 230.671875 179.597656 231.671875 179.339844 232.585938 Z M 210.257812 284.441406 L 208.691406 284.441406 C 206.277344 284.441406 205.070312 283.886719 205.070312 282.777344 C 205.070312 282.582031 205.082031 282.386719 205.109375 282.191406 C 205.148438 281.996094 205.199219 281.765625 205.265625 281.503906 L 223.171875 217.417969 C 223.5625 216.179688 224.867188 215.558594 227.085938 215.558594 L 230.214844 215.558594 C 232.433594 215.558594 233.738281 216.179688 234.128906 217.417969 L 251.9375 281.503906 C 252 281.765625 252.066406 281.996094 252.132812 282.191406 C 252.199219 282.386719 252.230469 282.582031 252.230469 282.777344 C 252.230469 283.886719 251.023438 284.441406 248.609375 284.441406 L 246.945312 284.441406 C 246.035156 284.441406 245.25 284.324219 244.597656 284.089844 C 243.945312 283.867188 243.554688 283.460938 243.425781 282.875 L 239.121094 266.632812 L 218.179688 266.632812 L 213.777344 282.875 C 213.648438 283.460938 213.257812 283.867188 212.605469 284.089844 C 211.953125 284.324219 211.167969 284.441406 210.257812 284.441406 Z M 227.28125 232.585938 L 220.039062 259.394531 L 237.164062 259.394531 L 230.019531 232.585938 C 229.757812 231.671875 229.542969 230.671875 229.375 229.589844 C 229.21875 228.519531 229.074219 227.527344 228.945312 226.617188 L 228.453125 226.617188 C 228.257812 227.527344 228.078125 228.519531 227.90625 229.589844 C 227.75 230.671875 227.542969 231.671875 227.28125 232.585938 Z M 291.367188 284.246094 L 263.675781 284.246094 C 261.65625 284.246094 260.644531 283.265625 260.644531 281.308594 L 260.644531 218.691406 C 260.644531 216.734375 261.65625 215.753906 263.675781 215.753906 L 291.367188 215.753906 C 292.671875 215.753906 293.324219 216.734375 293.324219 218.691406 L 293.324219 220.257812 C 293.324219 222.214844 292.671875 223.191406 291.367188 223.191406 L 269.449219 223.191406 L 269.449219 245.5 L 289.117188 245.5 C 290.421875 245.5 291.074219 246.476562 291.074219 248.433594 L 291.074219 250 C 291.074219 251.957031 290.421875 252.933594 289.117188 252.933594 L 269.449219 252.933594 L 269.449219 276.808594 L 291.367188 276.808594 C 292.671875 276.808594 293.324219 277.785156 293.324219 279.742188 L 293.324219 281.308594 C 293.324219 283.265625 292.671875 284.246094 291.367188 284.246094 Z M 299.859375 284.441406 L 298.292969 284.441406 C 295.878906 284.441406 294.675781 283.886719 294.675781 282.777344 C 294.675781 282.582031 294.695312 282.386719 294.734375 282.191406 C 294.757812 281.996094 294.804688 281.765625 294.871094 281.503906 L 312.773438 217.417969 C 313.167969 216.179688 314.46875 215.558594 316.6875 215.558594 L 319.820312 215.558594 C 322.035156 215.558594 323.339844 216.179688 323.734375 217.417969 L 341.539062 281.503906 C 341.605469 281.765625 341.671875 281.996094 341.734375 282.191406 C 341.800781 282.386719 341.832031 282.582031 341.832031 282.777344 C 341.832031 283.886719 340.628906 284.441406 338.214844 284.441406 L 336.550781 284.441406 C 335.636719 284.441406 334.855469 284.324219 334.203125 284.089844 C 333.550781 283.867188 333.160156 283.460938 333.027344 282.875 L 328.722656 266.632812 L 307.785156 266.632812 L 303.382812 282.875 C 303.25 283.460938 302.859375 283.867188 302.207031 284.089844 C 301.554688 284.324219 300.773438 284.441406 299.859375 284.441406 Z M 316.882812 232.585938 L 309.644531 259.394531 L 326.765625 259.394531 L 319.625 232.585938 C 319.363281 231.671875 319.152344 230.671875 318.996094 229.589844 C 318.828125 228.519531 318.679688 227.527344 318.546875 226.617188 L 318.058594 226.617188 C 317.863281 227.527344 317.6875 228.519531 317.53125 229.589844 C 317.359375 230.671875 317.144531 231.671875 316.882812 232.585938 Z M 316.882812 232.585938 "/>
</g>
</svg>
